<?xml version="1.0" encoding="UTF-8"?>
<svg version="1.1" xmlns="http://www.w3.org/2000/svg" width="256" height="256">
<path d="M0 0 C3.12578143 1.6720747 5.39281175 3.7856235 7 7 C7 9.97 7 12.94 7 16 C38.68 16 70.36 16 103 16 C103 13.03 103 10.06 103 7 C105.09651243 3.91040273 106.63981748 1.68009126 110 0 C114.09157355 -0.51512617 118.23589546 -0.94367269 121.95703125 1.046875 C124.09315687 2.81398622 125.75449171 4.50898341 127 7 C127.06950541 8.54023996 127.08452357 10.08334988 127.0625 11.625 C127.05347656 12.44226562 127.04445312 13.25953125 127.03515625 14.1015625 C127.01775391 15.04128906 127.01775391 15.04128906 127 16 C127.72590332 15.97381592 128.45180664 15.94763184 129.19970703 15.9206543 C132.50791541 15.8163319 135.8157772 15.75156128 139.125 15.6875 C140.83816406 15.6246582 140.83816406 15.6246582 142.5859375 15.56054688 C152.09006383 15.4224055 152.09006383 15.4224055 155.7421875 18.39453125 C159.58528512 22.82938612 159.10402873 26.36437125 159.03076172 32.00439453 C159.0146539 33.9397856 158.99895685 35.87518012 158.98361206 37.81057739 C158.97407375 38.84029789 158.96453545 39.87001839 158.9547081 40.93094254 C158.90323721 47.51763905 158.90892684 54.10458849 158.90334892 60.69145393 C158.89513507 66.48270578 158.86738236 72.27261302 158.79785156 78.06347656 C158.73174437 83.66199716 158.71937595 89.25837092 158.74310684 94.85720444 C158.74249698 96.98866097 158.72243416 99.12020609 158.68233871 101.25128555 C158.02480908 112.80243462 158.02480908 112.80243462 162.36846924 122.97186279 C165.16054895 124.99481349 167.93048577 126.44924735 171 128 C182.06601681 137.94239089 190.16800684 152.6196574 191.17138672 167.55029297 C191.72966254 179.15488032 191.8706301 190.22952927 187 201 C186.525625 202.07121094 186.05125 203.14242187 185.5625 204.24609375 C177.53216014 220.6349364 164.16958173 231.82172733 147 238 C129.57119867 243.05941397 110.42391228 241.02629518 94.58447266 232.46459961 C87.62475374 228.44440603 79.66645894 222.99023455 75.81070709 215.77425766 C73.22436483 210.91791105 73.22436483 210.91791105 68.66888428 208.17986298 C65.75813671 207.88605769 62.96549054 207.87782116 60.04101562 207.96582031 C58.94762375 207.96278397 57.85423187 207.95974762 56.72770691 207.95661926 C53.11912904 207.95609745 49.51427889 208.01785709 45.90625 208.078125 C43.39571998 208.08516977 40.88517278 208.08752416 38.37463379 208.08538818 C31.76759959 208.08909113 25.16182147 208.14217596 18.55523682 208.2098999 C7.98108719 208.31748706 -2.59311971 208.36397669 -13.1678009 208.37612152 C-16.86095421 208.39044927 -20.5526675 208.43781656 -24.2454834 208.48809814 C-26.51065541 208.49880806 -28.77583324 208.50837083 -31.04101562 208.51660156 C-32.57946892 208.55074913 -32.57946892 208.55074913 -34.14900208 208.58558655 C-38.72445936 208.57460481 -41.97007885 208.53723717 -45.62243652 205.5927124 C-49.31101324 201.5703514 -49.13078139 199.44826286 -49.15390015 194.04229736 C-49.1582824 193.31794959 -49.16266465 192.59360181 -49.1671797 191.84730411 C-49.18058906 189.40764027 -49.18675134 186.96801257 -49.19287109 184.52832031 C-49.20077039 182.78408646 -49.20903924 181.03985425 -49.21765137 179.29562378 C-49.24389188 173.55647344 -49.25918124 167.81731574 -49.2734375 162.078125 C-49.27879639 160.10390976 -49.28417389 158.12969457 -49.28956985 156.15547943 C-49.31120174 147.9442114 -49.32993901 139.73294536 -49.34119225 131.52165604 C-49.35743459 119.74652958 -49.39061577 107.97173295 -49.44759309 96.19673085 C-49.48627273 87.92150592 -49.50582261 79.64636929 -49.51111281 71.37105632 C-49.51476904 66.42659579 -49.52681908 61.48248689 -49.55921555 56.53812408 C-49.58926131 51.88575857 -49.59562054 47.23395807 -49.58383179 42.58151627 C-49.58361076 40.87470266 -49.59194019 39.16786311 -49.60948563 37.46113968 C-49.63215745 35.12862498 -49.62389383 32.79816258 -49.60800171 30.46563721 C-49.61131186 29.16113239 -49.614622 27.85662758 -49.61803246 26.51259232 C-48.8062217 21.89865954 -47.27732543 20.28859753 -44 17 C-41.33821779 15.6691089 -39.31260604 15.88731007 -36.3359375 15.90234375 C-35.21445312 15.90556641 -34.09296875 15.90878906 -32.9375 15.91210938 C-31.761875 15.92048828 -30.58625 15.92886719 -29.375 15.9375 C-28.19164063 15.94201172 -27.00828125 15.94652344 -25.7890625 15.95117188 C-22.85932493 15.96298533 -19.92968728 15.97945742 -17 16 C-17.02755371 15.39091797 -17.05510742 14.78183594 -17.08349609 14.15429688 C-17.11564209 12.94870117 -17.11564209 12.94870117 -17.1484375 11.71875 C-17.17599121 10.92404297 -17.20354492 10.12933594 -17.23193359 9.31054688 C-16.83530189 5.35926011 -14.81869306 3.68446959 -12 1 C-8.27533151 -0.86233425 -4.05504687 -0.57130829 0 0 Z M-7 9 C-9.49111925 12.73667887 -9.29613477 15.67870976 -9.25 20 C-9.25773437 20.72445313 -9.26546875 21.44890625 -9.2734375 22.1953125 C-9.25942063 25.99388493 -9.15441944 27.76837084 -7 31 C-4.52733235 30.65555119 -4.52733235 30.65555119 -2 30 C-0.4279876 26.85597519 -0.81553256 23.51052603 -0.8125 20.0625 C-0.80025391 19.33353516 -0.78800781 18.60457031 -0.77539062 17.85351562 C-0.76487315 14.0286609 -0.82904376 12.25643436 -3 9 C-4.32 9 -5.64 9 -7 9 Z M113 9 C110.50888075 12.73667887 110.70386523 15.67870976 110.75 20 C110.74226562 20.72445313 110.73453125 21.44890625 110.7265625 22.1953125 C110.74057937 25.99388493 110.84558056 27.76837084 113 31 C115.47266765 30.65555119 115.47266765 30.65555119 118 30 C119.5720124 26.85597519 119.18446744 23.51052603 119.1875 20.0625 C119.19974609 19.33353516 119.21199219 18.60457031 119.22460938 17.85351562 C119.23512685 14.0286609 119.17095624 12.25643436 117 9 C115.68 9 114.36 9 113 9 Z M-41 56 C-41.0825 79.0175 -41.165 102.035 -41.25 125.75 C-41.28641602 133.02256836 -41.32283203 140.29513672 -41.36035156 147.78808594 C-41.37372784 154.29714587 -41.37372784 154.29714587 -41.3817749 160.80621338 C-41.38550734 163.70949485 -41.40051963 166.61248489 -41.42230225 169.51568604 C-41.44970921 173.21745722 -41.45797041 176.91880375 -41.4522891 180.62066698 C-41.45403854 182.6222276 -41.47550867 184.6237411 -41.497715 186.62517929 C-41.49220501 187.8062035 -41.48669502 188.98722771 -41.48101807 190.20404053 C-41.48470524 191.2327615 -41.48839241 192.26148247 -41.49219131 193.3213768 C-40.86033817 196.76007321 -39.78469554 197.93286795 -37 200 C-34.87028208 200.58125854 -34.87028208 200.58125854 -32.57073975 200.48101807 C-31.69016907 200.48651672 -30.80959839 200.49201538 -29.90234375 200.49768066 C-28.94424805 200.48329956 -27.98615234 200.46891846 -26.99902344 200.45410156 C-25.47659027 200.45497772 -25.47659027 200.45497772 -23.92340088 200.45587158 C-20.56837778 200.4530847 -17.21424291 200.42196313 -13.859375 200.390625 C-11.53339117 200.38316479 -9.20740105 200.37747082 -6.88140869 200.37347412 C-0.75906017 200.35820065 5.36290885 200.31890353 11.48510742 200.2746582 C17.73220689 200.23374276 23.97936767 200.21547104 30.2265625 200.1953125 C42.48454175 200.15241138 54.74223932 200.08413891 67 200 C66.78846786 199.12935913 66.57693573 198.25871826 66.35899353 197.36169434 C66.08446854 196.20786255 65.80994354 195.05403076 65.52709961 193.86523438 C65.11698891 192.15708557 65.11698891 192.15708557 64.69859314 190.41442871 C63.6769157 185.42090017 63.50700038 180.5823668 63.5625 175.5 C63.57079834 174.50242676 63.57909668 173.50485352 63.58764648 172.47705078 C63.76399599 164.76411339 64.79252477 158.08119161 68 151 C68.48597656 149.9171875 68.97195312 148.834375 69.47265625 147.71875 C77.41422006 131.64787856 90.21548936 121.03970936 107 115 C113.59153362 113.08868503 119.91283498 112.66342548 126.75 112.6875 C127.64976562 112.67138672 128.54953125 112.65527344 129.4765625 112.63867188 C137.34647675 112.63309828 142.91101742 114.13331171 151 116 C151 96.2 151 76.4 151 56 C87.64 56 24.28 56 -41 56 Z M112 139 C112.185625 140.11375 112.37125 141.2275 112.5625 142.375 C113 146 113 146 112 148 C109.125 148.1875 109.125 148.1875 106 148 C105.34 147.01 104.68 146.02 104 145 C100.63408134 146.44253657 98.48952921 148.33264727 96 151 C96.33 151.99 96.66 152.98 97 154 C97.66 154.33 98.32 154.66 99 155 C99 156.98 99 158.96 99 161 C96.03 161 93.06 161 90 161 C88.80712589 164.87684087 88 167.91621923 88 172 C89.98 172.33 91.96 172.66 94 173 C94 174.98 94 176.96 94 179 C91.03 179.495 91.03 179.495 88 180 C88.144375 181.258125 88.28875 182.51625 88.4375 183.8125 C88.55931641 184.87404297 88.55931641 184.87404297 88.68359375 185.95703125 C88.97170735 188.19396393 88.97170735 188.19396393 90 191 C91.11375 190.814375 92.2275 190.62875 93.375 190.4375 C97 190 97 190 99 191 C99.1875 193.875 99.1875 193.875 99 197 C98.01 197.66 97.02 198.32 96 199 C97.44253657 202.36591866 99.33264727 204.51047079 102 207 C103.485 206.505 103.485 206.505 105 206 C105.33 205.34 105.66 204.68 106 204 C107.98 204 109.96 204 112 204 C112 206.97 112 209.94 112 213 C115.87684087 214.19287411 118.91621923 215 123 215 C123.33 213.02 123.66 211.04 124 209 C125.98 209 127.96 209 130 209 C130.66 210.98 131.32 212.96 132 215 C136.95 214.01 136.95 214.01 142 213 C142 210.03 142 207.06 142 204 C144.875 203.8125 144.875 203.8125 148 204 C148.99 205.485 148.99 205.485 150 207 C153.36591866 205.55746343 155.51047079 203.66735273 158 201 C157.67 200.01 157.34 199.02 157 198 C156.34 197.67 155.68 197.34 155 197 C155 195.02 155 193.04 155 191 C158.32534757 189.89155081 160.62182575 190.15545644 164 191 C165.19287411 187.12315913 166 184.08378077 166 180 C164.02 179.67 162.04 179.34 160 179 C160 177.02 160 175.04 160 173 C161.98 172.67 163.96 172.34 166 172 C165.7834375 170.1128125 165.7834375 170.1128125 165.5625 168.1875 C165.48128906 167.47980469 165.40007812 166.77210938 165.31640625 166.04296875 C165.02829265 163.80603607 165.02829265 163.80603607 164 161 C161.03 161 158.06 161 155 161 C154.8125 158.125 154.8125 158.125 155 155 C155.99 154.34 156.98 153.68 158 153 C156.55746343 149.63408134 154.66735273 147.48952921 152 145 C148.88214887 145.64644661 148.88214887 145.64644661 148 148 C146.02 148 144.04 148 142 148 C140.89155081 144.67465243 141.15545644 142.37817425 142 139 C138.12315913 137.80712589 135.08378077 137 131 137 C130.67 138.98 130.34 140.96 130 143 C128.02 143 126.04 143 124 143 C123.34 141.02 122.68 139.04 122 137 C118.38970831 137 115.44193324 137.96092582 112 139 Z " fill="#2180C9" transform="translate(57,8)"/>
<path d="M0 0 C0.99 0.66 1.98 1.32 3 2 C3 2.66 3 3.32 3 4 C3.88558594 4.37705078 3.88558594 4.37705078 4.7890625 4.76171875 C13.3916677 9.57978562 17.94542168 21.63965467 20.81640625 30.52734375 C24.24777177 44.94867715 22.15546438 59.25276667 15.28515625 72.2421875 C13.62526814 74.92270703 11.87766972 77.46865553 10 80 C9.2575 81.051875 8.515 82.10375 7.75 83.1875 C-2.48783253 93.65801054 -16.29886298 101.12051428 -31.13769531 101.32983398 C-48.11997701 101.19047407 -62.24313146 96.4377769 -74.78125 84.44921875 C-80.98696016 77.59890137 -85.06614423 69.71310934 -88 61 C-88.4125 59.80375 -88.825 58.6075 -89.25 57.375 C-92.4758706 43.01842272 -89.65096134 27.43281218 -82 15 C-73.21825935 2.14102262 -60.99019074 -7.10795961 -45.5625 -10.375 C-28.67868835 -12.69286432 -14.03834424 -9.74964437 0 0 Z M-49 8 C-48.814375 9.11375 -48.62875 10.2275 -48.4375 11.375 C-48 15 -48 15 -49 17 C-51.875 17.1875 -51.875 17.1875 -55 17 C-55.66 16.01 -56.32 15.02 -57 14 C-60.36591866 15.44253657 -62.51047079 17.33264727 -65 20 C-64.67 20.99 -64.34 21.98 -64 23 C-63.34 23.33 -62.68 23.66 -62 24 C-62 25.98 -62 27.96 -62 30 C-64.97 30 -67.94 30 -71 30 C-72.19287411 33.87684087 -73 36.91621923 -73 41 C-71.02 41.33 -69.04 41.66 -67 42 C-67 43.98 -67 45.96 -67 48 C-69.97 48.495 -69.97 48.495 -73 49 C-72.855625 50.258125 -72.71125 51.51625 -72.5625 52.8125 C-72.44068359 53.87404297 -72.44068359 53.87404297 -72.31640625 54.95703125 C-72.02829265 57.19396393 -72.02829265 57.19396393 -71 60 C-69.88625 59.814375 -68.7725 59.62875 -67.625 59.4375 C-64 59 -64 59 -62 60 C-61.8125 62.875 -61.8125 62.875 -62 66 C-62.99 66.66 -63.98 67.32 -65 68 C-63.55746343 71.36591866 -61.66735273 73.51047079 -59 76 C-57.515 75.505 -57.515 75.505 -56 75 C-55.67 74.34 -55.34 73.68 -55 73 C-53.02 73 -51.04 73 -49 73 C-49 75.97 -49 78.94 -49 82 C-45.12315913 83.19287411 -42.08378077 84 -38 84 C-37.67 82.02 -37.34 80.04 -37 78 C-35.02 78 -33.04 78 -31 78 C-30.34 79.98 -29.68 81.96 -29 84 C-24.05 83.01 -24.05 83.01 -19 82 C-19 79.03 -19 76.06 -19 73 C-16.125 72.8125 -16.125 72.8125 -13 73 C-12.01 74.485 -12.01 74.485 -11 76 C-7.63408134 74.55746343 -5.48952921 72.66735273 -3 70 C-3.33 69.01 -3.66 68.02 -4 67 C-4.66 66.67 -5.32 66.34 -6 66 C-6 64.02 -6 62.04 -6 60 C-2.67465243 58.89155081 -0.37817425 59.15545644 3 60 C4.19287411 56.12315913 5 53.08378077 5 49 C3.02 48.67 1.04 48.34 -1 48 C-1 46.02 -1 44.04 -1 42 C0.98 41.67 2.96 41.34 5 41 C4.7834375 39.1128125 4.7834375 39.1128125 4.5625 37.1875 C4.48128906 36.47980469 4.40007812 35.77210938 4.31640625 35.04296875 C4.02829265 32.80603607 4.02829265 32.80603607 3 30 C0.03 30 -2.94 30 -6 30 C-6.1875 27.125 -6.1875 27.125 -6 24 C-5.01 23.34 -4.02 22.68 -3 22 C-4.44253657 18.63408134 -6.33264727 16.48952921 -9 14 C-12.11785113 14.64644661 -12.11785113 14.64644661 -13 17 C-14.98 17 -16.96 17 -19 17 C-20.10844919 13.67465243 -19.84454356 11.37817425 -19 8 C-22.87684087 6.80712589 -25.91621923 6 -30 6 C-30.33 7.98 -30.66 9.96 -31 12 C-32.98 12 -34.96 12 -37 12 C-37.66 10.02 -38.32 8.04 -39 6 C-42.61029169 6 -45.55806676 6.96092582 -49 8 Z " fill="#2181CA" transform="translate(218,139)"/>
<path d="M0 0 C0.91120605 0.01047363 1.82241211 0.02094727 2.76123047 0.03173828 C3.74736328 0.03818359 4.73349609 0.04462891 5.74951172 0.05126953 C7.29832031 0.07640625 7.29832031 0.07640625 8.87841797 0.10205078 C9.91869141 0.11107422 10.95896484 0.12009766 12.03076172 0.12939453 C14.60520889 0.15301331 17.17920009 0.18594929 19.75341797 0.22705078 C19.86733887 0.9126709 19.98125977 1.59829102 20.09863281 2.3046875 C20.26057129 3.20461426 20.42250977 4.10454102 20.58935547 5.03173828 C20.74452637 5.9236084 20.89969727 6.81547852 21.05957031 7.734375 C21.78583522 10.34351107 22.41899643 11.52189435 24.37841797 13.35205078 C28.45347324 15.61597038 31.2070836 16.31382394 35.75341797 15.22705078 C39.30914152 13.51442928 39.30914152 13.51442928 41.75341797 10.22705078 C42.41341797 6.92705078 43.07341797 3.62705078 43.75341797 0.22705078 C75.43341797 0.22705078 107.11341797 0.22705078 139.75341797 0.22705078 C140.74341797 5.17705078 140.74341797 5.17705078 141.75341797 10.22705078 C144.23241237 13.17823459 145.92266678 14.78942102 149.71435547 15.69580078 C153.63548754 15.99627067 155.63750225 15.2914484 159.12841797 13.35205078 C161.79125518 10.86488374 162.30162644 8.57146004 162.91748047 5.03173828 C163.07941895 4.13181152 163.24135742 3.23188477 163.40820312 2.3046875 C163.52212402 1.61906738 163.63604492 0.93344727 163.75341797 0.22705078 C167.37835131 0.16917295 171.00316654 0.13349658 174.62841797 0.10205078 C175.66095703 0.08529297 176.69349609 0.06853516 177.75732422 0.05126953 C178.74345703 0.04482422 179.72958984 0.03837891 180.74560547 0.03173828 C182.11241455 0.01602783 182.11241455 0.01602783 183.50683594 0 C185.75341797 0.22705078 185.75341797 0.22705078 187.75341797 2.22705078 C187.75341797 9.48705078 187.75341797 16.74705078 187.75341797 24.22705078 C124.39341797 24.22705078 61.03341797 24.22705078 -4.24658203 24.22705078 C-4.24658203 0.42918075 -4.24658203 0.42918075 0 0 Z " fill="#99C8FE" transform="translate(20.24658203125,31.77294921875)"/>
<path d="M0 0 C0.99 0.66 1.98 1.32 3 2 C3 2.66 3 3.32 3 4 C3.88558594 4.37705078 3.88558594 4.37705078 4.7890625 4.76171875 C13.3916677 9.57978562 17.94542168 21.63965467 20.81640625 30.52734375 C24.24777177 44.94867715 22.15546438 59.25276667 15.28515625 72.2421875 C13.62526814 74.92270703 11.87766972 77.46865553 10 80 C9.2575 81.051875 8.515 82.10375 7.75 83.1875 C-2.48783253 93.65801054 -16.29886298 101.12051428 -31.13769531 101.32983398 C-48.11997701 101.19047407 -62.24313146 96.4377769 -74.78125 84.44921875 C-80.98696016 77.59890137 -85.06614423 69.71310934 -88 61 C-88.4125 59.80375 -88.825 58.6075 -89.25 57.375 C-92.4758706 43.01842272 -89.65096134 27.43281218 -82 15 C-73.21825935 2.14102262 -60.99019074 -7.10795961 -45.5625 -10.375 C-28.67868835 -12.69286432 -14.03834424 -9.74964437 0 0 Z M-71.6640625 14.01171875 C-80.24665157 24.99111781 -82.84333473 37.25676734 -82 51 C-80.05447639 64.1899906 -73.92506792 75.17441316 -63.67138672 83.77050781 C-52.16918403 92.23166655 -38.78228361 94.55539055 -24.8046875 92.5390625 C-12.30512264 89.76500764 -0.98402377 83.28713997 6.08007812 72.32373047 C12.98637629 60.48014988 16.17190624 48.23730939 13.27734375 34.59375 C9.50485718 21.5198694 2.93697403 10.88598289 -8.5859375 3.296875 C-11.01886801 2.0228483 -13.43317312 0.97334075 -16 0 C-17.13115234 -0.47373047 -17.13115234 -0.47373047 -18.28515625 -0.95703125 C-37.65609657 -8.03922813 -57.92143879 -0.27280652 -71.6640625 14.01171875 Z " fill="#93C7FD" transform="translate(218,139)"/>
<path d="M0 0 C1.48919952 -0.00422974 1.48919952 -0.00422974 3.00848389 -0.00854492 C4.10670471 -0.00652069 5.20492554 -0.00449646 6.33642578 -0.00241089 C8.06061737 -0.00503937 8.06061737 -0.00503937 9.81964111 -0.00772095 C13.64035528 -0.01214226 17.4610236 -0.00920048 21.28173828 -0.00582886 C23.9235027 -0.00650182 26.56526705 -0.00747177 29.20703125 -0.00872803 C34.75212099 -0.01054957 40.29719743 -0.00814383 45.84228516 -0.00338745 C52.26168572 0.00205514 58.68105453 0.00029247 65.10045433 -0.00521386 C71.26474811 -0.01029062 77.42902776 -0.00976347 83.59332275 -0.00683212 C86.22170008 -0.00616257 88.8500782 -0.00699224 91.47845459 -0.00931168 C95.14467551 -0.01183655 98.8108345 -0.00799993 102.47705078 -0.00241089 C103.57527161 -0.00443512 104.67349243 -0.00645935 105.80499268 -0.00854492 C106.79779236 -0.0057251 107.79059204 -0.00290527 108.81347656 0 C109.68142853 0.00037703 110.54938049 0.00075405 111.44363403 0.0011425 C113.40673828 0.12698364 113.40673828 0.12698364 114.40673828 1.12698364 C114.53173828 4.12698364 114.53173828 4.12698364 114.40673828 7.12698364 C112.79243946 8.74128246 111.04609929 8.25299747 108.81347656 8.25396729 C107.32427704 8.25819702 107.32427704 8.25819702 105.80499268 8.26251221 C104.70677185 8.26048798 103.60855103 8.25846375 102.47705078 8.25637817 C101.32758972 8.25813049 100.17812866 8.25988281 98.99383545 8.26168823 C95.17312128 8.26610955 91.35245296 8.26316777 87.53173828 8.25979614 C84.88997387 8.2604691 82.24820951 8.26143906 79.60644531 8.26269531 C74.06135557 8.26451685 68.51627913 8.26211111 62.97119141 8.25735474 C56.55179084 8.25191214 50.13242203 8.25367481 43.71302223 8.25918114 C37.54872845 8.2642579 31.3844488 8.26373075 25.22015381 8.26079941 C22.59177649 8.26012986 19.96339836 8.26095952 17.33502197 8.26327896 C13.66880105 8.26580384 10.00264206 8.26196721 6.33642578 8.25637817 C5.23820496 8.2584024 4.13998413 8.26042664 3.00848389 8.26251221 C2.0156842 8.25969238 1.02288452 8.25687256 0 8.25396729 C-0.86795197 8.25359026 -1.73590393 8.25321323 -2.63015747 8.25282478 C-4.59326172 8.12698364 -4.59326172 8.12698364 -5.59326172 7.12698364 C-5.71826172 4.12698364 -5.71826172 4.12698364 -5.59326172 1.12698364 C-3.9789629 -0.48731518 -2.23262273 0.00096982 0 0 Z " fill="#227FC6" transform="translate(77.59326171875,87.87301635742188)"/>
<path d="M0 0 C0.66209473 -0.00095673 1.32418945 -0.00191345 2.00634766 -0.00289917 C3.40852961 -0.00358076 4.8107147 -0.00172792 6.21289062 0.00244141 C8.36595713 0.00779004 10.51881502 0.0024958 12.671875 -0.00390625 C14.03125046 -0.00324546 15.3906258 -0.00196429 16.75 0 C18.61785156 0.00169189 18.61785156 0.00169189 20.5234375 0.00341797 C23.375 0.1328125 23.375 0.1328125 24.375 1.1328125 C24.4741657 2.75538794 24.50579777 4.38221081 24.5078125 6.0078125 C24.50974609 7.48507813 24.50974609 7.48507813 24.51171875 8.9921875 C24.50785156 10.02859375 24.50398438 11.065 24.5 12.1328125 C24.50580078 13.68742188 24.50580078 13.68742188 24.51171875 15.2734375 C24.51042969 16.25828125 24.50914063 17.243125 24.5078125 18.2578125 C24.50668457 19.16789062 24.50555664 20.07796875 24.50439453 21.015625 C24.375 23.1328125 24.375 23.1328125 23.375 24.1328125 C21.16849344 24.23293651 18.95877614 24.2636243 16.75 24.265625 C16.08790527 24.26658173 15.42581055 24.26753845 14.74365234 24.26852417 C13.34147039 24.26920576 11.9392853 24.26735292 10.53710938 24.26318359 C8.38404287 24.25783496 6.23118498 24.2631292 4.078125 24.26953125 C2.71874954 24.26887046 1.3593742 24.26758929 0 24.265625 C-1.24523438 24.26449707 -2.49046875 24.26336914 -3.7734375 24.26220703 C-6.625 24.1328125 -6.625 24.1328125 -7.625 23.1328125 C-7.7241657 21.51023706 -7.75579777 19.88341419 -7.7578125 18.2578125 C-7.75910156 17.27296875 -7.76039062 16.288125 -7.76171875 15.2734375 C-7.75785156 14.23703125 -7.75398438 13.200625 -7.75 12.1328125 C-7.75580078 10.57820312 -7.75580078 10.57820312 -7.76171875 8.9921875 C-7.76042969 8.00734375 -7.75914063 7.0225 -7.7578125 6.0078125 C-7.75668457 5.09773437 -7.75555664 4.18765625 -7.75439453 3.25 C-7.47430191 -1.33294948 -3.81114892 0.00345213 0 0 Z " fill="#227FC8" transform="translate(39.625,159.8671875)"/>
<path d="M0 0 C0.66209473 -0.00095673 1.32418945 -0.00191345 2.00634766 -0.00289917 C3.40852961 -0.00358076 4.8107147 -0.00172792 6.21289062 0.00244141 C8.36595713 0.00779004 10.51881502 0.0024958 12.671875 -0.00390625 C14.03125046 -0.00324546 15.3906258 -0.00196429 16.75 0 C18.61785156 0.00169189 18.61785156 0.00169189 20.5234375 0.00341797 C23.375 0.1328125 23.375 0.1328125 24.375 1.1328125 C24.4741657 2.75538794 24.50579777 4.38221081 24.5078125 6.0078125 C24.50974609 7.48507813 24.50974609 7.48507813 24.51171875 8.9921875 C24.50785156 10.02859375 24.50398438 11.065 24.5 12.1328125 C24.50580078 13.68742188 24.50580078 13.68742188 24.51171875 15.2734375 C24.51042969 16.25828125 24.50914063 17.243125 24.5078125 18.2578125 C24.50668457 19.16789062 24.50555664 20.07796875 24.50439453 21.015625 C24.375 23.1328125 24.375 23.1328125 23.375 24.1328125 C21.16849344 24.23293651 18.95877614 24.2636243 16.75 24.265625 C16.08790527 24.26658173 15.42581055 24.26753845 14.74365234 24.26852417 C13.34147039 24.26920576 11.9392853 24.26735292 10.53710938 24.26318359 C8.38404287 24.25783496 6.23118498 24.2631292 4.078125 24.26953125 C2.71874954 24.26887046 1.3593742 24.26758929 0 24.265625 C-1.24523438 24.26449707 -2.49046875 24.26336914 -3.7734375 24.26220703 C-6.625 24.1328125 -6.625 24.1328125 -7.625 23.1328125 C-7.7241657 21.51023706 -7.75579777 19.88341419 -7.7578125 18.2578125 C-7.75910156 17.27296875 -7.76039062 16.288125 -7.76171875 15.2734375 C-7.75785156 14.23703125 -7.75398438 13.200625 -7.75 12.1328125 C-7.75580078 10.57820312 -7.75580078 10.57820312 -7.76171875 8.9921875 C-7.76042969 8.00734375 -7.75914063 7.0225 -7.7578125 6.0078125 C-7.75668457 5.09773438 -7.75555664 4.18765625 -7.75439453 3.25 C-7.47430191 -1.33294948 -3.81114892 0.00345213 0 0 Z " fill="#227FC8" transform="translate(39.625,119.8671875)"/>
<path d="M0 0 C0.66209473 -0.00095673 1.32418945 -0.00191345 2.00634766 -0.00289917 C3.40852961 -0.00358076 4.8107147 -0.00172792 6.21289062 0.00244141 C8.36595713 0.00779004 10.51881502 0.0024958 12.671875 -0.00390625 C14.03125046 -0.00324546 15.3906258 -0.00196429 16.75 0 C18.61785156 0.00169189 18.61785156 0.00169189 20.5234375 0.00341797 C23.375 0.1328125 23.375 0.1328125 24.375 1.1328125 C24.4741657 2.75538794 24.50579777 4.38221081 24.5078125 6.0078125 C24.50974609 7.48507813 24.50974609 7.48507813 24.51171875 8.9921875 C24.50785156 10.02859375 24.50398438 11.065 24.5 12.1328125 C24.50580078 13.68742187 24.50580078 13.68742187 24.51171875 15.2734375 C24.51042969 16.25828125 24.50914063 17.243125 24.5078125 18.2578125 C24.50668457 19.16789062 24.50555664 20.07796875 24.50439453 21.015625 C24.375 23.1328125 24.375 23.1328125 23.375 24.1328125 C21.16849344 24.23293651 18.95877614 24.2636243 16.75 24.265625 C16.08790527 24.26658173 15.42581055 24.26753845 14.74365234 24.26852417 C13.34147039 24.26920576 11.9392853 24.26735292 10.53710938 24.26318359 C8.38404287 24.25783496 6.23118498 24.2631292 4.078125 24.26953125 C2.71874954 24.26887046 1.3593742 24.26758929 0 24.265625 C-1.24523438 24.26449707 -2.49046875 24.26336914 -3.7734375 24.26220703 C-6.625 24.1328125 -6.625 24.1328125 -7.625 23.1328125 C-7.7241657 21.51023706 -7.75579777 19.88341419 -7.7578125 18.2578125 C-7.75910156 17.27296875 -7.76039062 16.288125 -7.76171875 15.2734375 C-7.75785156 14.23703125 -7.75398438 13.200625 -7.75 12.1328125 C-7.75580078 10.57820313 -7.75580078 10.57820313 -7.76171875 8.9921875 C-7.76042969 8.00734375 -7.75914063 7.0225 -7.7578125 6.0078125 C-7.75668457 5.09773438 -7.75555664 4.18765625 -7.75439453 3.25 C-7.47430191 -1.33294948 -3.81114892 0.00345213 0 0 Z " fill="#227FC8" transform="translate(39.625,79.8671875)"/>
<path d="M0 0 C1.8569751 -0.00472824 1.8569751 -0.00472824 3.75146484 -0.009552 C5.11295609 -0.00776222 6.47444701 -0.00571127 7.8359375 -0.00341797 C9.22216814 -0.00409106 10.60839867 -0.00506113 11.99462891 -0.00631714 C14.90333172 -0.00779387 17.81200387 -0.00564037 20.72070312 -0.00097656 C24.45690348 0.00472073 28.19303202 0.00144159 31.92922974 -0.00454903 C34.79273016 -0.00815532 37.65621343 -0.00701574 40.51971436 -0.00442123 C41.89768482 -0.00375215 43.27565682 -0.00457973 44.65362549 -0.00690079 C46.57637504 -0.00942839 48.49913002 -0.0048957 50.421875 0 C52.06615479 0.00119339 52.06615479 0.00119339 53.74365234 0.00241089 C56.2109375 0.12939453 56.2109375 0.12939453 57.2109375 1.12939453 C57.3359375 4.12939453 57.3359375 4.12939453 57.2109375 7.12939453 C55.43177283 8.9085592 52.82780451 8.25704288 50.421875 8.25878906 C49.1838916 8.26194122 47.9459082 8.26509338 46.67041016 8.26834106 C45.30891891 8.26655128 43.94742799 8.26450033 42.5859375 8.26220703 C41.19970686 8.26288012 39.81347633 8.26385019 38.42724609 8.2651062 C35.51854328 8.26658293 32.60987113 8.26442943 29.70117188 8.25976562 C25.96497152 8.25406834 22.22884298 8.25734748 18.49264526 8.26333809 C15.62914484 8.26694438 12.76566157 8.2658048 9.90216064 8.2632103 C8.52419018 8.26254122 7.14621818 8.2633688 5.76824951 8.26568985 C3.84549996 8.26821745 1.92274498 8.26368477 0 8.25878906 C-1.64427979 8.25759567 -1.64427979 8.25759567 -3.32177734 8.25637817 C-5.7890625 8.12939453 -5.7890625 8.12939453 -6.7890625 7.12939453 C-6.9140625 4.12939453 -6.9140625 4.12939453 -6.7890625 1.12939453 C-5.00989783 -0.64977014 -2.40592951 0.00174618 0 0 Z " fill="#237FC6" transform="translate(78.7890625,127.87060546875)"/>
<path d="M0 0 C3 0.125 3 0.125 4 1.125 C4.10012401 3.33150656 4.1308118 5.54122386 4.1328125 7.75 C4.13424759 8.74314209 4.13424759 8.74314209 4.13571167 9.75634766 C4.13639326 11.15852961 4.13454042 12.5607147 4.13037109 13.96289062 C4.12502246 16.11595713 4.1303167 18.26881502 4.13671875 20.421875 C4.13605796 21.78125046 4.13477679 23.1406258 4.1328125 24.5 C4.13168457 25.74523437 4.13055664 26.99046875 4.12939453 28.2734375 C4 31.125 4 31.125 3 32.125 C1.37742456 32.2241657 -0.24939831 32.25579777 -1.875 32.2578125 C-2.85984375 32.25910156 -3.8446875 32.26039063 -4.859375 32.26171875 C-5.89578125 32.25785156 -6.9321875 32.25398438 -8 32.25 C-9.55460938 32.25580078 -9.55460938 32.25580078 -11.140625 32.26171875 C-12.12546875 32.26042969 -13.1103125 32.25914062 -14.125 32.2578125 C-15.03507813 32.25668457 -15.94515625 32.25555664 -16.8828125 32.25439453 C-19 32.125 -19 32.125 -20 31.125 C-20.125 28.125 -20.125 28.125 -20 25.125 C-19 24.125 -19 24.125 -15.62109375 24.02734375 C-14.22652923 24.03401631 -12.83198257 24.04597468 -11.4375 24.0625 C-10.72658203 24.06701172 -10.01566406 24.07152344 -9.28320312 24.07617188 C-7.52209987 24.08799136 -5.76103964 24.10592737 -4 24.125 C-4.00523682 23.43349854 -4.01047363 22.74199707 -4.01586914 22.02954102 C-4.036575 18.91553648 -4.04963963 15.80154639 -4.0625 12.6875 C-4.07087891 11.59888672 -4.07925781 10.51027344 -4.08789062 9.38867188 C-4.09111328 8.35419922 -4.09433594 7.31972656 -4.09765625 6.25390625 C-4.10289307 5.29556885 -4.10812988 4.33723145 -4.11352539 3.34985352 C-3.93761142 -0.09768194 -3.51702641 0.14654277 0 0 Z " fill="#237FC6" transform="translate(184,155.875)"/>
<path d="M0 0 C0.82290527 0.00202423 1.64581055 0.00404846 2.49365234 0.00613403 C3.33331543 0.00517731 4.17297852 0.00422058 5.03808594 0.00323486 C6.81689529 0.00255306 8.59570712 0.00440737 10.37451172 0.00857544 C13.10699011 0.01392371 15.83930411 0.00863048 18.57177734 0.00222778 C20.29573604 0.00288856 22.01969464 0.00416973 23.74365234 0.00613403 C24.56655762 0.0041098 25.38946289 0.00208557 26.23730469 0 C32.0037018 0.02399599 32.0037018 0.02399599 33.11865234 1.13894653 C33.24365234 4.13894653 33.24365234 4.13894653 33.11865234 7.13894653 C31.27588726 8.98171162 28.68901476 8.26769065 26.23730469 8.27789307 C25.41439941 8.27586884 24.59149414 8.2738446 23.74365234 8.27175903 C22.90398926 8.27271576 22.06432617 8.27367249 21.19921875 8.2746582 C19.4204094 8.27534001 17.64159757 8.2734857 15.86279297 8.26931763 C13.13031458 8.26396936 10.39800058 8.26926259 7.66552734 8.27566528 C5.94156865 8.2750045 4.21761005 8.27372334 2.49365234 8.27175903 C1.67074707 8.27378326 0.8478418 8.2758075 0 8.27789307 C-5.76639711 8.25389708 -5.76639711 8.25389708 -6.88134766 7.13894653 C-7.00634766 4.13894653 -7.00634766 4.13894653 -6.88134766 1.13894653 C-5.03858257 -0.70381855 -2.45171007 0.01020242 0 0 Z " fill="#237FC6" transform="translate(78.88134765625,167.86105346679688)"/>
<path d="M0 0 C5.28 0 10.56 0 16 0 C16 2.64 16 5.28 16 8 C10.72 8 5.44 8 0 8 C0 5.36 0 2.72 0 0 Z " fill="#95CBFE" transform="translate(40,168)"/>
<path d="M0 0 C5.28 0 10.56 0 16 0 C16 2.64 16 5.28 16 8 C10.72 8 5.44 8 0 8 C0 5.36 0 2.72 0 0 Z " fill="#98CBFF" transform="translate(40,128)"/>
<path d="M0 0 C5.28 0 10.56 0 16 0 C16 2.64 16 5.28 16 8 C10.72 8 5.44 8 0 8 C0 5.36 0 2.72 0 0 Z " fill="#95CAFF" transform="translate(40,88)"/>
<path d="M0 0 C1.00023193 0.00523682 2.00046387 0.01047363 3.03100586 0.01586914 C4.1105957 0.0190918 5.19018555 0.02231445 6.30249023 0.02563477 C8.00695312 0.03820312 8.00695312 0.03820312 9.74584961 0.05102539 C11.45611328 0.05779297 11.45611328 0.05779297 13.20092773 0.06469727 C16.02845312 0.07652792 18.85587601 0.09301129 21.68334961 0.11352539 C21.68334961 0.44352539 21.68334961 0.77352539 21.68334961 1.11352539 C20.69153687 1.15110962 20.69153687 1.15110962 19.6796875 1.18945312 C16.70152656 1.30505641 13.72371041 1.42794293 10.74584961 1.55102539 C9.18447266 1.61 9.18447266 1.61 7.59155273 1.67016602 C6.10751953 1.73300781 6.10751953 1.73300781 4.59350586 1.79711914 C3.67706299 1.83377686 2.76062012 1.87043457 1.81640625 1.90820312 C-0.29872319 1.88356403 -0.29872319 1.88356403 -1.31665039 3.11352539 C-1.47351288 4.67301081 -1.56741678 6.23895207 -1.63305664 7.80493164 C-1.69589844 9.22128906 -1.69589844 9.22128906 -1.76000977 10.66625977 C-1.79932617 11.65948242 -1.83864258 12.65270508 -1.87915039 13.67602539 C-1.92233398 14.67311523 -1.96551758 15.67020508 -2.01000977 16.69750977 C-2.11645337 19.16936689 -2.21846967 21.64132849 -2.31665039 24.11352539 C-2.64665039 24.11352539 -2.97665039 24.11352539 -3.31665039 24.11352539 C-3.34552275 20.30104113 -3.36340531 16.48858469 -3.37915039 12.67602539 C-3.3875293 11.58741211 -3.3959082 10.49879883 -3.40454102 9.37719727 C-3.40776367 8.34272461 -3.41098633 7.30825195 -3.41430664 6.24243164 C-3.41954346 5.28409424 -3.42478027 4.32575684 -3.43017578 3.33837891 C-3.2737428 0.27262887 -3.06945228 0.15041578 0 0 Z " fill="#2A7DC2" transform="translate(18.316650390625,30.886474609375)"/>
<path d="M0 0 C0.33 0 0.66 0 1 0 C1.30487805 7.92682927 1.30487805 7.92682927 -1 11 C-3.625 12.75 -3.625 12.75 -6 14 C-4.16508812 9.25981099 -2.08058541 4.63586749 0 0 Z " fill="#83C5FB" transform="translate(229,199)"/>
<path d="M0 0 C-1.79033807 1.31431172 -3.58231203 2.6263953 -5.375 3.9375 C-6.37273437 4.66839844 -7.37046875 5.39929688 -8.3984375 6.15234375 C-11 8 -11 8 -13 9 C-12.64463519 6.18771639 -12.19649652 5.17418516 -10.0390625 3.26171875 C-9.24242187 2.74222656 -8.44578125 2.22273437 -7.625 1.6875 C-6.83351562 1.15511719 -6.04203125 0.62273437 -5.2265625 0.07421875 C-3 -1 -3 -1 0 0 Z " fill="#2C80C3" transform="translate(156,136)"/>
<path d="M0 0 C0.99 0 1.98 0 3 0 C3 0.99 3 1.98 3 3 C3.66 3 4.32 3 5 3 C7.125 4.875 7.125 4.875 9 7 C9 7.66 9 8.32 9 9 C9.66 9 10.32 9 11 9 C11 9.66 11 10.32 11 11 C7.84164893 9.60249952 5.67727175 7.94801766 3.25 5.5 C2.63640625 4.8915625 2.0228125 4.283125 1.390625 3.65625 C0 2 0 2 0 0 Z " fill="#2D82C0" transform="translate(145,211)"/>
<path d="M0 0 C0.33 0.66 0.66 1.32 1 2 C0.34 2 -0.32 2 -1 2 C-1.165 2.639375 -1.33 3.27875 -1.5 3.9375 C-3 6 -3 6 -4.9140625 6.48828125 C-6.93575155 6.7275978 -8.96841939 6.86893028 -11 7 C-11 6.34 -11 5.68 -11 5 C-7.37 3.35 -3.74 1.7 0 0 Z " fill="#3283C7" transform="translate(214,231)"/>
<path d="M0 0 C2.64465038 3.1254959 3.84414715 6.08788267 5 10 C3.68 9.67 2.36 9.34 1 9 C0.67 6.03 0.34 3.06 0 0 Z " fill="#2F80C7" transform="translate(131,204)"/>
<path d="M0 0 C1.65 0 3.3 0 5 0 C3.35 1.98 1.7 3.96 0 6 C-1.125 2.25 -1.125 2.25 0 0 Z " fill="#84C6F9" transform="translate(148,147)"/>
<path d="M0 0 C0.86625 0.3403125 0.86625 0.3403125 1.75 0.6875 C1.75 1.3475 1.75 2.0075 1.75 2.6875 C-0.56 3.3475 -2.87 4.0075 -5.25 4.6875 C-5.58 4.0275 -5.91 3.3675 -6.25 2.6875 C-2.80384615 -0.38942308 -2.80384615 -0.38942308 0 0 Z " fill="#2A83C2" transform="translate(148.25,131.3125)"/>
</svg>
